<?xml version="1.0" encoding="UTF-8" standalone="no"?>
<!-- Created with Inkscape (http://www.inkscape.org/) -->

<svg
   width="41mm"
   height="55.000004mm"
   viewBox="0 0 41 55.000004"
   version="1.1"
   id="svg1"
   xml:space="preserve"
   xmlns:inkscape="http://www.inkscape.org/namespaces/inkscape"
   xmlns:sodipodi="http://sodipodi.sourceforge.net/DTD/sodipodi-0.dtd"
   xmlns="http://www.w3.org/2000/svg"
   xmlns:svg="http://www.w3.org/2000/svg"><sodipodi:namedview
     id="namedview1"
     pagecolor="#ffffff"
     bordercolor="#000000"
     borderopacity="0.25"
     inkscape:showpageshadow="2"
     inkscape:pageopacity="0.0"
     inkscape:pagecheckerboard="0"
     inkscape:deskcolor="#d1d1d1"
     inkscape:document-units="mm"><inkscape:page
       x="0"
       y="0"
       width="41"
       height="55.000008"
       id="page2"
       margin="0"
       bleed="0" /></sodipodi:namedview><defs
     id="defs1" /><g
     inkscape:label="Layer 1"
     inkscape:groupmode="layer"
     id="layer1"><g
       id="g9"
       transform="matrix(0.71746367,0,0,0.71746367,-58.741196,-67.240127)"><path
         d="M 136.08002,115.68157 H 117.42069 V 97.083431 H 84.784088 v 69.930489 h 51.324392 v -51.30389 z"
         style="fill:none;stroke:#2f4c75;stroke-width:4.42756;stroke-linecap:round;stroke-linejoin:round;stroke-miterlimit:2.7;stroke-opacity:1;paint-order:stroke fill markers"
         id="path7" /><path
         d="M 136.08002,115.68157 117.48217,97.083431 h -0.0615 v 18.598139 z"
         style="fill:none;stroke:#2f4c75;stroke-width:4.40015;stroke-linecap:round;stroke-linejoin:round;stroke-miterlimit:2.7;stroke-opacity:1;paint-order:stroke fill markers"
         id="path8" /><path
         style="fill:none;stroke:#2f4c75;stroke-width:4.43249;stroke-linecap:round;stroke-linejoin:round;stroke-miterlimit:2.7;stroke-dasharray:none;stroke-opacity:1;paint-order:stroke fill markers"
         d="M 94.103121,129.63335 H 119.63343"
         id="path9" /><path
         style="fill:none;stroke:#2f4c75;stroke-width:4.95774;stroke-linecap:round;stroke-linejoin:round;stroke-miterlimit:2.7;stroke-dasharray:none;stroke-opacity:1;paint-order:stroke fill markers"
         d="M 94.365749,141.22673 H 126.30535"
         id="path9-7" /><path
         style="fill:none;stroke:#2f4c75;stroke-width:4.95774;stroke-linecap:round;stroke-linejoin:round;stroke-miterlimit:2.7;stroke-dasharray:none;stroke-opacity:1;paint-order:stroke fill markers"
         d="M 94.365749,153.08273 H 126.30535"
         id="path9-7-2" /><path
         d="m 97.813503,102.82921 c -0.06038,0.0636 -0.0874,0.10805 -0.108053,0.17956 -0.03019,0.10328 -0.06991,0.23676 -0.11123,0.37341 -0.0143,0.0477 -0.117587,0.39408 -0.230406,0.76908 l -0.203392,0.68169 -0.154134,0.0524 c -0.279666,0.0953 -0.530729,0.19863 -0.79927,0.3321 l -0.266956,0.13189 -0.1589,-0.0842 c -0.0874,-0.0461 -0.244703,-0.13029 -0.349582,-0.18591 -0.104873,-0.0572 -0.233582,-0.12712 -0.286019,-0.15572 -0.368652,-0.19863 -0.700752,-0.37978 -0.802447,-0.43698 -0.06515,-0.035 -0.158901,-0.0858 -0.20816,-0.11123 l -0.09058,-0.0461 -0.171612,0.16049 c -0.09534,0.089 -0.500535,0.48942 -0.902557,0.89144 l -0.727761,0.73094 0.08581,0.15572 c 0.0477,0.0874 0.122354,0.22087 0.163665,0.30032 0.04131,0.0779 0.09852,0.18274 0.123946,0.23041 0.02704,0.0477 0.09057,0.16367 0.14142,0.25742 0.05083,0.0953 0.136651,0.25265 0.189088,0.34958 0.05403,0.0985 0.133478,0.24789 0.177973,0.33051 0.0429,0.0826 0.08898,0.16526 0.100104,0.18274 0.01272,0.0175 0.02225,0.0413 0.02225,0.0556 0,0.0127 -0.04924,0.12076 -0.109637,0.23834 -0.143012,0.27967 -0.282841,0.61177 -0.392489,0.93275 -0.02864,0.0795 -0.03178,0.0826 -0.117584,0.10806 -0.0477,0.0159 -0.115998,0.0366 -0.150954,0.0477 -0.05403,0.0175 -0.160493,0.0493 -0.222463,0.0651 -0.0079,0.003 -0.06515,0.0191 -0.127118,0.0381 -0.06038,0.0191 -0.122353,0.0366 -0.13507,0.0397 -0.01272,0.003 -0.07309,0.0206 -0.135065,0.0397 -0.06038,0.0191 -0.122348,0.0366 -0.135065,0.0397 -0.01272,0.003 -0.109642,0.0318 -0.214515,0.0636 -0.28125,0.0842 -0.427445,0.12871 -0.587933,0.17479 -0.130295,0.0381 -0.150954,0.0493 -0.233582,0.13189 l -0.09058,0.0906 -0.0017,1.13138 c 0,1.09323 0,1.13296 0.03018,1.14726 0.01592,0.01 0.08898,0.0334 0.162079,0.0556 0.07309,0.0206 0.27013,0.0794 0.435387,0.12871 0.166843,0.0493 0.313038,0.0922 0.325744,0.0953 0.01272,0.003 0.07468,0.0222 0.135065,0.0397 0.176382,0.054 0.244707,0.0747 0.389305,0.116 0.17956,0.0524 0.456051,0.13507 0.518021,0.15572 0.0429,0.0127 0.05403,0.0286 0.07786,0.10647 0.125531,0.41791 0.262188,0.7659 0.436978,1.11548 l 0.108056,0.2161 -0.08263,0.15891 c -0.0461,0.0858 -0.128704,0.23994 -0.184324,0.34005 -0.05403,0.1001 -0.125532,0.23199 -0.158901,0.29396 -0.03338,0.0604 -0.103287,0.18909 -0.154132,0.28602 -0.154137,0.28125 -0.297144,0.54662 -0.375008,0.69281 l -0.0731,0.13506 0.810395,0.8104 0.808803,0.8088 0.09217,-0.0461 c 0.04924,-0.027 0.144599,-0.0779 0.209746,-0.11282 0.130296,-0.0731 0.649908,-0.35593 0.850115,-0.4624 0.06992,-0.0381 0.212929,-0.11441 0.317808,-0.1732 0.104868,-0.0572 0.24153,-0.1303 0.303494,-0.16207 l 0.112822,-0.0572 0.284435,0.14301 c 0.155721,0.0794 0.38136,0.18115 0.498947,0.22722 0.117586,0.0461 0.228817,0.089 0.246296,0.0969 0.0286,0.0111 0.278076,0.0906 0.36706,0.11759 0.02224,0.005 0.03973,0.0302 0.05085,0.0683 0.0286,0.1001 0.104874,0.36229 0.177969,0.59906 0.01748,0.0604 0.03655,0.12235 0.03973,0.13506 0.0048,0.0206 0.11123,0.38137 0.220872,0.74684 0.02066,0.0651 0.06356,0.20974 0.09693,0.32256 l 0.06038,0.20181 h 1.148852 1.148851 l 0.0874,-0.10488 c 0.0493,-0.0572 0.089,-0.10805 0.0906,-0.1144 0.002,-0.0207 0.0127,-0.0588 0.0461,-0.17003 0.0191,-0.062 0.0366,-0.12235 0.0397,-0.13506 0.003,-0.0127 0.0207,-0.0747 0.0397,-0.13507 0.0191,-0.062 0.0365,-0.12235 0.0397,-0.13506 0.003,-0.0127 0.0207,-0.0699 0.0381,-0.12713 0.0175,-0.0572 0.10011,-0.33528 0.18433,-0.61971 0.0842,-0.28443 0.1589,-0.52755 0.16684,-0.54026 0.006,-0.0127 0.0763,-0.0445 0.15414,-0.0699 0.24788,-0.0794 0.57681,-0.21769 0.87077,-0.36388 l 0.28602,-0.14301 0.0874,0.0461 c 0.0477,0.0254 0.1875,0.1001 0.30986,0.16684 0.19862,0.10806 0.32256,0.17479 0.7071,0.38295 0.0572,0.0318 0.1891,0.10329 0.29397,0.15891 0.10487,0.0572 0.25265,0.13665 0.32733,0.17637 0.0747,0.0413 0.14619,0.0747 0.16049,0.0747 0.0286,0 1.77652,-1.75267 1.77652,-1.78286 0,-0.0111 -0.0191,-0.0524 -0.0413,-0.0922 -0.0222,-0.0397 -0.0715,-0.12871 -0.10964,-0.19863 -0.0366,-0.0699 -0.11282,-0.20974 -0.16685,-0.30985 -0.0556,-0.10011 -0.21928,-0.4052 -0.36547,-0.67692 -0.14778,-0.27013 -0.28125,-0.51802 -0.30032,-0.54821 -0.0175,-0.0302 -0.0334,-0.0652 -0.0334,-0.0795 0,-0.0143 0.0429,-0.10964 0.0953,-0.21134 0.0842,-0.16525 0.1732,-0.36547 0.24789,-0.55774 0.0143,-0.035 0.0302,-0.0747 0.0365,-0.0874 0.006,-0.0127 0.0397,-0.10964 0.0731,-0.21452 0.0334,-0.10487 0.0683,-0.19863 0.0779,-0.20975 0.01,-0.01 0.0826,-0.0366 0.16049,-0.0604 0.23517,-0.0699 0.28125,-0.0826 0.39725,-0.11917 0.062,-0.0175 0.12235,-0.0366 0.13507,-0.0397 0.0127,-0.003 0.0747,-0.0207 0.13506,-0.0397 0.062,-0.0191 0.12235,-0.0366 0.13507,-0.0397 0.0127,-0.003 0.0747,-0.0206 0.13506,-0.0397 0.062,-0.0191 0.12236,-0.0366 0.13507,-0.0397 0.0127,-0.003 0.10964,-0.0318 0.21451,-0.0636 0.10488,-0.0318 0.25107,-0.0747 0.32416,-0.0953 0.11759,-0.0334 0.1446,-0.0477 0.21928,-0.12236 l 0.0842,-0.0826 v -1.14728 -1.14726 l -0.0985,-0.0334 c -0.0937,-0.0302 -0.51642,-0.15572 -0.56886,-0.16843 -0.0127,-0.003 -0.0731,-0.0222 -0.13507,-0.0397 -0.16684,-0.0508 -0.23993,-0.0731 -0.39725,-0.11918 -0.0779,-0.0238 -0.20021,-0.0588 -0.27013,-0.0794 -0.0699,-0.0207 -0.1875,-0.0556 -0.26219,-0.0779 -0.0747,-0.0207 -0.18114,-0.0524 -0.23835,-0.0715 l -0.10328,-0.0318 -0.054,-0.16367 c -0.10646,-0.33528 -0.30986,-0.80562 -0.46558,-1.08687 l -0.0715,-0.12713 0.12712,-0.2304 c 0.0683,-0.12553 0.15731,-0.2892 0.19703,-0.36388 0.0906,-0.16844 0.35435,-0.65626 0.57204,-1.05669 0.0381,-0.0699 0.0811,-0.15096 0.0954,-0.17956 l 0.027,-0.0524 -0.79292,-0.79292 c -0.43697,-0.43697 -0.80562,-0.7945 -0.81833,-0.7945 -0.0143,0 -0.0381,0.01 -0.0556,0.0207 -0.0175,0.0127 -0.0922,0.054 -0.16684,0.0937 -0.14302,0.0763 -0.40202,0.21611 -0.71029,0.38454 -0.10329,0.0556 -0.23041,0.12394 -0.28284,0.15255 -0.14619,0.0779 -0.26855,0.1446 -0.47988,0.26059 l -0.19227,0.10488 -0.25266,-0.12554 c -0.30508,-0.15254 -0.52596,-0.24311 -0.83105,-0.34322 -0.12712,-0.0413 -0.2447,-0.081 -0.26377,-0.0874 -0.0238,-0.01 -0.0413,-0.0461 -0.0683,-0.13666 -0.0524,-0.18591 -0.0953,-0.32892 -0.25583,-0.86442 -0.081,-0.26695 -0.16208,-0.54185 -0.18273,-0.61177 -0.0207,-0.0699 -0.0524,-0.17796 -0.0715,-0.23835 -0.0191,-0.062 -0.0366,-0.12394 -0.0397,-0.13983 -0.003,-0.0143 -0.0111,-0.035 -0.0159,-0.0429 -0.006,-0.0111 -0.413139,-0.0159 -1.158383,-0.0159 h -1.148852 z m 1.558816,5.31046 c 0.131887,0.0254 0.141421,0.027 0.263775,0.0556 0.394076,0.0906 0.924806,0.36707 1.253726,0.65627 0.54662,0.47987 0.88508,1.06622 1.02332,1.7765 0.0366,0.1891 0.0429,0.27967 0.0429,0.57522 0,0.25901 -0.0143,0.41791 -0.0477,0.57364 -0.01,0.0366 -0.0207,0.0922 -0.0254,0.12235 -0.0207,0.12235 -0.14142,0.4481 -0.23835,0.64354 -0.28284,0.57523 -0.64672,0.955 -1.16792,1.21878 -0.564095,0.28601 -1.191753,0.40043 -1.779686,0.32257 -0.100107,-0.0127 -0.200215,-0.027 -0.22246,-0.0318 -0.02224,-0.005 -0.07468,-0.0159 -0.119176,-0.0254 -0.1446,-0.0286 -0.492592,-0.15413 -0.672149,-0.24471 -0.889845,-0.44492 -1.534981,-1.31411 -1.681168,-2.26433 -0.04767,-0.31462 -0.04767,-0.79609 0.0017,-1.03286 0.0048,-0.0222 0.01272,-0.0652 0.01749,-0.0953 0.04926,-0.27648 0.203394,-0.67691 0.362294,-0.94228 0.190682,-0.3178 0.365472,-0.51484 0.645138,-0.72459 0.343225,-0.259 0.818338,-0.47987 1.18381,-0.54979 0.115997,-0.0222 0.322568,-0.0556 0.38136,-0.062 0.131888,-0.0143 0.654672,0.006 0.778614,0.0286 z"
         id="path1"
         style="fill:#2f4c75;fill-opacity:1;stroke:#000000;stroke-width:0.002;stroke-dasharray:none;stroke-opacity:1" /></g></g></svg>
