<?xml version="1.0" encoding="UTF-8" standalone="no"?>
<!-- Created with Inkscape (http://www.inkscape.org/) -->

<svg
   width="98mm"
   height="56mm"
   viewBox="0 0 98 56"
   version="1.1"
   id="svg1"
   xml:space="preserve"
   sodipodi:docname="ASRSMachine.svg"
   inkscape:version="1.4 (86a8ad7, 2024-10-11)"
   inkscape:export-filename="Parts\ASRSBottlesCover.svg"
   inkscape:export-xdpi="96"
   inkscape:export-ydpi="96"
   xmlns:inkscape="http://www.inkscape.org/namespaces/inkscape"
   xmlns:sodipodi="http://sodipodi.sourceforge.net/DTD/sodipodi-0.dtd"
   xmlns="http://www.w3.org/2000/svg"
   xmlns:svg="http://www.w3.org/2000/svg"><sodipodi:namedview
     id="namedview1"
     pagecolor="#ffffff"
     bordercolor="#000000"
     borderopacity="0.25"
     inkscape:showpageshadow="2"
     inkscape:pageopacity="0.0"
     inkscape:pagecheckerboard="0"
     inkscape:deskcolor="#d1d1d1"
     inkscape:document-units="mm"
     inkscape:zoom="0.66828073"
     inkscape:cx="341.92218"
     inkscape:cy="545.42947"
     inkscape:window-width="1920"
     inkscape:window-height="1137"
     inkscape:window-x="-8"
     inkscape:window-y="381"
     inkscape:window-maximized="1"
     inkscape:current-layer="svg1"><inkscape:page
       x="0"
       y="0"
       width="98"
       height="56"
       id="page2"
       margin="0"
       bleed="0" /></sodipodi:namedview><defs
     id="defs1" /><path
     d="m 0.772113,0.5258125 0.003,7.79901 1.22318,0.006 V 24.685372 h 1.02733 v 0.2248 h 1.35961 v 2.45411 h 0.19792 v 0.46767 h 1.64486 v 0.56018 h 0.50384 v 2.3337 l 0.520381,0.45062 h 0.0853 c 0.14733,-2.37438 1.07867,-4.17815 2.27738,-5.61774 l 0.0615,-0.0677 9.54463,-10.45828 0.88419,-0.0264 0.009,-0.0155 0.25735,0.008 0.25631,-0.008 0.009,0.0155 0.88418,0.0264 9.54412,10.45828 0.0615,0.0677 c 1.306643,1.56922 2.307863,3.56273 2.307863,6.26628 v 0.0258 23.614585 h -0.004 v 0.009 h 1.3348 v -0.009 h -0.008 v -23.614585 -0.0258 c 0,-2.70355 1.00122,-4.69706 2.30787,-6.26628 l 0.0615,-0.0677 9.54463,-10.45828 0.88367,-0.0264 0.009,-0.0155 0.25683,0.008 0.25631,-0.008 0.009,0.0155 0.88419,0.0264 9.54412,10.45828 0.0615,0.0677 c 1.19681,1.43731 2.12772,3.23758 2.27738,5.60637 l 0.54777,-0.47439 v -2.3337 h 0.50385 v -0.56018 h 1.64486 v -0.46767 h 0.19792 v -2.26136 h 1.31206 v 4.560451 h 1.29915 v -0.0114 h 26.55032 v -0.0258 h 4.3186 V 0.5256225 Z"
     style="fill:#cca087;fill-opacity:1;stroke-width:0.199465;stroke-linecap:square;stroke-miterlimit:2.7;paint-order:stroke fill markers"
     id="path632" /></svg>
