<?xml version="1.0" encoding="UTF-8" standalone="no"?>
<!-- Created with Inkscape (http://www.inkscape.org/) -->

<svg
   width="52"
   height="52"
   viewBox="0 0 13.758333 13.758333"
   version="1.1"
   id="svg1"
   xml:space="preserve"
   xmlns:inkscape="http://www.inkscape.org/namespaces/inkscape"
   xmlns:sodipodi="http://sodipodi.sourceforge.net/DTD/sodipodi-0.dtd"
   xmlns:xlink="http://www.w3.org/1999/xlink"
   xmlns="http://www.w3.org/2000/svg"
   xmlns:svg="http://www.w3.org/2000/svg"><sodipodi:namedview
     id="namedview1"
     pagecolor="#ffffff"
     bordercolor="#000000"
     borderopacity="0.25"
     inkscape:showpageshadow="2"
     inkscape:pageopacity="0.0"
     inkscape:pagecheckerboard="0"
     inkscape:deskcolor="#d1d1d1"
     inkscape:document-units="mm"><inkscape:page
       x="0"
       y="0"
       width="13.758333"
       height="13.758333"
       id="page2"
       margin="0"
       bleed="0" /></sodipodi:namedview><defs
     id="defs1"><linearGradient
       id="linearGradient17"
       inkscape:collect="always"><stop
         style="stop-color:#0e0e0e;stop-opacity:1;"
         offset="0"
         id="stop17" /><stop
         style="stop-color:#2f2f2f;stop-opacity:1;"
         offset="0.17534247"
         id="stop19" /><stop
         style="stop-color:#393939;stop-opacity:1;"
         offset="0.48630136"
         id="stop20" /><stop
         style="stop-color:#272727;stop-opacity:1;"
         offset="0.71506852"
         id="stop21" /><stop
         style="stop-color:#060606;stop-opacity:1;"
         offset="1"
         id="stop18" /></linearGradient><linearGradient
       inkscape:collect="always"
       xlink:href="#linearGradient17"
       id="linearGradient18"
       x1="64.221519"
       y1="64.222519"
       x2="374.31049"
       y2="374.31149"
       gradientUnits="userSpaceOnUse" /><linearGradient
       inkscape:collect="always"
       xlink:href="#linearGradient17"
       id="linearGradient21"
       gradientUnits="userSpaceOnUse"
       x1="64.221519"
       y1="64.222519"
       x2="374.31049"
       y2="374.31149" /><linearGradient
       inkscape:collect="always"
       xlink:href="#linearGradient17"
       id="linearGradient22"
       gradientUnits="userSpaceOnUse"
       x1="64.221519"
       y1="64.222519"
       x2="374.31049"
       y2="374.31149" /><linearGradient
       inkscape:collect="always"
       xlink:href="#linearGradient17"
       id="linearGradient23"
       gradientUnits="userSpaceOnUse"
       x1="64.221519"
       y1="64.222519"
       x2="374.31049"
       y2="374.31149" /><linearGradient
       inkscape:collect="always"
       xlink:href="#linearGradient17"
       id="linearGradient24"
       gradientUnits="userSpaceOnUse"
       x1="64.221519"
       y1="64.222519"
       x2="374.31049"
       y2="374.31149" /><linearGradient
       inkscape:collect="always"
       xlink:href="#linearGradient17"
       id="linearGradient25"
       gradientUnits="userSpaceOnUse"
       x1="64.221519"
       y1="64.222519"
       x2="374.31049"
       y2="374.31149" /><linearGradient
       inkscape:collect="always"
       xlink:href="#linearGradient17"
       id="linearGradient26"
       gradientUnits="userSpaceOnUse"
       x1="64.221519"
       y1="64.222519"
       x2="374.31049"
       y2="374.31149" /><linearGradient
       inkscape:collect="always"
       xlink:href="#linearGradient17"
       id="linearGradient27"
       gradientUnits="userSpaceOnUse"
       x1="64.221519"
       y1="64.222519"
       x2="374.31049"
       y2="374.31149" /><linearGradient
       inkscape:collect="always"
       xlink:href="#linearGradient17"
       id="linearGradient28"
       gradientUnits="userSpaceOnUse"
       x1="64.221519"
       y1="64.222519"
       x2="374.31049"
       y2="374.31149" /><linearGradient
       inkscape:collect="always"
       xlink:href="#linearGradient17"
       id="linearGradient29"
       gradientUnits="userSpaceOnUse"
       x1="64.221519"
       y1="64.222519"
       x2="374.31049"
       y2="374.31149" /><linearGradient
       inkscape:collect="always"
       xlink:href="#linearGradient17"
       id="linearGradient30"
       gradientUnits="userSpaceOnUse"
       x1="64.221519"
       y1="64.222519"
       x2="374.31049"
       y2="374.31149" /><linearGradient
       inkscape:collect="always"
       xlink:href="#linearGradient17"
       id="linearGradient31"
       gradientUnits="userSpaceOnUse"
       x1="64.221519"
       y1="64.222519"
       x2="374.31049"
       y2="374.31149" /><linearGradient
       inkscape:collect="always"
       xlink:href="#linearGradient17"
       id="linearGradient32"
       gradientUnits="userSpaceOnUse"
       x1="64.221519"
       y1="64.222519"
       x2="374.31049"
       y2="374.31149" /><linearGradient
       inkscape:collect="always"
       xlink:href="#linearGradient17"
       id="linearGradient33"
       gradientUnits="userSpaceOnUse"
       x1="64.221519"
       y1="64.222519"
       x2="374.31049"
       y2="374.31149" /><linearGradient
       inkscape:collect="always"
       xlink:href="#linearGradient17"
       id="linearGradient34"
       gradientUnits="userSpaceOnUse"
       x1="64.221519"
       y1="64.222519"
       x2="374.31049"
       y2="374.31149" /><linearGradient
       inkscape:collect="always"
       xlink:href="#linearGradient17"
       id="linearGradient35"
       gradientUnits="userSpaceOnUse"
       x1="64.221519"
       y1="64.222519"
       x2="374.31049"
       y2="374.31149" /><linearGradient
       inkscape:collect="always"
       xlink:href="#linearGradient17"
       id="linearGradient36"
       gradientUnits="userSpaceOnUse"
       x1="64.221519"
       y1="64.222519"
       x2="374.31049"
       y2="374.31149" /><linearGradient
       inkscape:collect="always"
       xlink:href="#linearGradient17"
       id="linearGradient37"
       gradientUnits="userSpaceOnUse"
       x1="64.221519"
       y1="64.222519"
       x2="374.31049"
       y2="374.31149" /></defs><g
     inkscape:label="Layer 1"
     inkscape:groupmode="layer"
     id="layer1"><g
       id="g37"
       transform="translate(-91.48478,-43.159678)"><circle
         style="fill:#ffffff;stroke-width:0.567566;stroke-linecap:round;stroke-miterlimit:2.7;paint-order:stroke fill markers"
         id="path17"
         cx="98.183655"
         cy="49.78212"
         r="5.1162705" /><g
         id="g17"
         transform="matrix(0.03016694,0,0,0.03016694,91.749362,43.42423)"
         style="fill:url(#linearGradient18)"><g
           id="g1"
           style="fill:url(#linearGradient22)">
	<path
   d="M 409.133,109.203 C 389.525,75.611 362.928,49.014 329.335,29.407 295.736,9.801 259.058,0 219.273,0 179.492,0 142.803,9.801 109.21,29.407 75.615,49.011 49.018,75.608 29.41,109.203 9.801,142.8 0,179.489 0,219.267 c 0,39.78 9.804,76.463 29.407,110.062 19.607,33.592 46.204,60.189 79.799,79.798 33.597,19.605 70.283,29.407 110.063,29.407 39.78,0 76.47,-9.802 110.065,-29.407 33.593,-19.602 60.189,-46.206 79.795,-79.798 19.603,-33.596 29.403,-70.284 29.403,-110.062 0.001,-39.782 -9.8,-76.472 -29.399,-110.064 z m -47.393,150.314 -29.123,29.129 c -3.621,3.614 -7.901,5.424 -12.847,5.424 -4.948,0 -9.236,-1.81 -12.847,-5.424 l -87.654,-87.653 -87.646,87.653 c -3.616,3.614 -7.898,5.424 -12.847,5.424 -4.95,0 -9.233,-1.81 -12.85,-5.424 l -29.12,-29.129 c -3.617,-3.607 -5.426,-7.898 -5.426,-12.847 0,-4.942 1.809,-9.227 5.426,-12.848 l 129.62,-129.616 c 3.617,-3.617 7.898,-5.424 12.847,-5.424 4.949,0 9.238,1.807 12.846,5.424 L 361.74,233.822 c 3.613,3.621 5.424,7.905 5.424,12.848 0,4.948 -1.807,9.239 -5.424,12.847 z"
   id="path1"
   style="fill:url(#linearGradient21)" />
</g><g
           id="g2"
           style="fill:url(#linearGradient23)">
</g><g
           id="g3"
           style="fill:url(#linearGradient24)">
</g><g
           id="g4"
           style="fill:url(#linearGradient25)">
</g><g
           id="g5"
           style="fill:url(#linearGradient26)">
</g><g
           id="g6"
           style="fill:url(#linearGradient27)">
</g><g
           id="g7"
           style="fill:url(#linearGradient28)">
</g><g
           id="g8"
           style="fill:url(#linearGradient29)">
</g><g
           id="g9"
           style="fill:url(#linearGradient30)">
</g><g
           id="g10"
           style="fill:url(#linearGradient31)">
</g><g
           id="g11"
           style="fill:url(#linearGradient32)">
</g><g
           id="g12"
           style="fill:url(#linearGradient33)">
</g><g
           id="g13"
           style="fill:url(#linearGradient34)">
</g><g
           id="g14"
           style="fill:url(#linearGradient35)">
</g><g
           id="g15"
           style="fill:url(#linearGradient36)">
</g><g
           id="g16"
           style="fill:url(#linearGradient37)">
</g></g></g></g></svg>
