<?xml version="1.0" encoding="UTF-8" standalone="no"?>
<!-- Created with Inkscape (http://www.inkscape.org/) -->

<svg
   width="60mm"
   height="67mm"
   viewBox="0 0 60 67"
   version="1.1"
   id="svg1"
   xml:space="preserve"
   xmlns="http://www.w3.org/2000/svg"
   xmlns:svg="http://www.w3.org/2000/svg"><defs
     id="defs1" /><g
     id="layer1"><g
       style="overflow:hidden;fill:#384b73;fill-opacity:1;stroke:#000000;stroke-width:12.6655;stroke-dasharray:none"
       id="g1"
       transform="matrix(0.10287794,0,0,0.10287794,-22.673505,-19.173505)"><path
         d="m 326.656,508.928 c -6.144,1.024 -12.288,1.024 -19.456,1.024 -6.144,0 -12.288,0 -19.456,-1.024 -6.144,-1.024 -11.264,4.096 -11.264,10.24 V 798.72 c 0,11.264 9.216,20.48 20.48,20.48 h 20.48 c 11.264,0 20.48,-9.216 20.48,-20.48 V 519.168 c 0,-7.168 -5.12,-11.264 -11.264,-10.24 z m 204.8,215.04 c -6.144,1.024 -12.288,1.024 -19.456,1.024 -6.144,0 -12.288,0 -19.456,-1.024 -6.144,-1.024 -11.264,4.096 -11.264,10.24 v 64.512 c 0,11.264 9.216,20.48 20.48,20.48 h 20.48 c 11.264,0 20.48,-9.216 20.48,-20.48 v -64.512 c 0,-7.168 -5.12,-11.264 -11.264,-10.24 z m 204.8,-153.6 c -6.144,1.024 -12.288,1.024 -19.456,1.024 -6.144,0 -12.288,0 -19.456,-1.024 -6.144,-1.024 -11.264,4.096 -11.264,10.24 V 798.72 c 0,11.264 9.216,20.48 20.48,20.48 h 20.48 c 11.264,0 20.48,-9.216 20.48,-20.48 V 580.608 c 0,-7.168 -5.12,-11.264 -11.264,-10.24 z m -398.336,-256 V 225.28 c 0,-11.264 -9.216,-20.48 -20.48,-20.48 h -20.48 c -11.264,0 -20.48,9.216 -20.48,20.48 v 89.088 c -24.576,11.264 -40.96,35.84 -40.96,64.512 0,39.936 31.744,71.68 71.68,71.68 39.936,0 71.68,-31.744 71.68,-71.68 0,-28.672 -16.384,-53.248 -40.96,-64.512 z m 204.8,215.04 V 225.28 c 0,-11.264 -9.216,-20.48 -20.48,-20.48 h -20.48 c -11.264,0 -20.48,9.216 -20.48,20.48 v 304.128 c -24.576,11.264 -40.96,35.84 -40.96,64.512 0,39.936 31.744,71.68 71.68,71.68 39.936,0 71.68,-31.744 71.68,-71.68 0,-28.672 -16.384,-53.248 -40.96,-64.512 z m 204.8,-153.6 V 225.28 c 0,-11.264 -9.216,-20.48 -20.48,-20.48 h -20.48 c -11.264,0 -20.48,9.216 -20.48,20.48 v 150.528 c -24.576,11.264 -40.96,35.84 -40.96,64.512 0,39.936 31.744,71.68 71.68,71.68 39.936,0 71.68,-31.744 71.68,-71.68 0,-28.672 -16.384,-53.248 -40.96,-64.512 z"
         id="path1"
         style="fill:#384b73;fill-opacity:1;stroke:#000000;stroke-width:12.6655;stroke-dasharray:none" /></g></g></svg>
