<?xml version="1.0" encoding="UTF-8" standalone="no"?>
<svg
   id="Layer_1"
   data-name="Layer 1"
   viewBox="0 0 122.88 122.88"
   version="1.1"
   sodipodi:docname="turnoffBtIdle.svg"
   inkscape:version="1.4 (86a8ad7, 2024-10-11)"
   xmlns:inkscape="http://www.inkscape.org/namespaces/inkscape"
   xmlns:sodipodi="http://sodipodi.sourceforge.net/DTD/sodipodi-0.dtd"
   xmlns:xlink="http://www.w3.org/1999/xlink"
   xmlns="http://www.w3.org/2000/svg"
   xmlns:svg="http://www.w3.org/2000/svg"
   xmlns:rdf="http://www.w3.org/1999/02/22-rdf-syntax-ns#"
   xmlns:cc="http://creativecommons.org/ns#"
   xmlns:dc="http://purl.org/dc/elements/1.1/">
  <sodipodi:namedview
     id="namedview3"
     pagecolor="#ffffff"
     bordercolor="#000000"
     borderopacity="0.25"
     inkscape:showpageshadow="2"
     inkscape:pageopacity="0.0"
     inkscape:pagecheckerboard="0"
     inkscape:deskcolor="#d1d1d1"
     inkscape:zoom="3.6336264"
     inkscape:cx="126.59529"
     inkscape:cy="81.323716"
     inkscape:window-width="1920"
     inkscape:window-height="1137"
     inkscape:window-x="-8"
     inkscape:window-y="-8"
     inkscape:window-maximized="1"
     inkscape:current-layer="Layer_1" />
  <defs
     id="defs1">
    <linearGradient
       id="linearGradient3"
       inkscape:collect="always">
      <stop
         style="stop-color:#ef4136;stop-opacity:1;"
         offset="0"
         id="stop3" />
      <stop
         style="stop-color:#ec4133;stop-opacity:1;"
         offset="0.60927153"
         id="stop5" />
      <stop
         style="stop-color:#a52c21;stop-opacity:1;"
         offset="1"
         id="stop4" />
    </linearGradient>
    <style
       id="style1">.cls-1{fill:#ef4136;}.cls-1,.cls-2{fill-rule:evenodd;}.cls-2{fill:#ff7c73;}.cls-3{fill:#fff;}</style>
    <linearGradient
       inkscape:collect="always"
       xlink:href="#linearGradient3"
       id="linearGradient4"
       x1="61.439999"
       y1="0"
       x2="61.439999"
       y2="122.88"
       gradientUnits="userSpaceOnUse" />
  </defs>
  <title
     id="title1">turn-off</title>
  <path
     class="cls-1"
     d="M61.44,0A61.44,61.44,0,1,1,0,61.44,61.44,61.44,0,0,1,61.44,0Z"
     id="path1"
     style="fill:url(#linearGradient4)" />
  <path
     class="cls-2"
     d="M61.44,2.25A59.15,59.15,0,0,1,120.59,61.4c0,.77,0,1.54,0,2.3a59.14,59.14,0,0,0-118.2,0c0-.76,0-1.53,0-2.3A59.15,59.15,0,0,1,61.44,2.25Z"
     id="path2" />
  <path
     class="cls-3"
     d="M81,44.75a7.08,7.08,0,0,1,10.71-9.27,40,40,0,1,1-60.87.39A7.07,7.07,0,0,1,41.67,45,25.85,25.85,0,1,0,81,44.75ZM68.54,47.92a7.1,7.1,0,1,1-14.2,0V26.74a7.1,7.1,0,1,1,14.2,0V47.92Z"
     id="path3"
     style="fill:#f9f9f9" />
  <metadata
     id="metadata5">
    <rdf:RDF>
      <cc:Work
         rdf:about="">
        <dc:title>turn-off</dc:title>
      </cc:Work>
    </rdf:RDF>
  </metadata>
</svg>
