<?xml version="1.0" encoding="UTF-8" standalone="no"?>
<!-- Created with Inkscape (http://www.inkscape.org/) -->

<svg
   width="100mm"
   height="50mm"
   viewBox="0 0 100 50"
   version="1.1"
   id="svg1"
   xml:space="preserve"
   xmlns="http://www.w3.org/2000/svg"
   xmlns:svg="http://www.w3.org/2000/svg"><defs
     id="defs1" /><g
     id="layer1"><g
       id="g97"
       transform="translate(37.25898,-25.880761)"><path
         id="path4-0-0-9-3"
         style="fill:#f9f9f9;stroke:none;stroke-width:0.784038"
         d="m -18.743114,29.97899 v 3.936375 l -10.011191,12.505009 c -0.469327,0.795996 -0.889091,1.642657 -0.90998,2.895075 l 0.227672,19.915055 h 12.148617 1.445928 12.148616 L -3.4657799,49.315449 C -3.4866645,48.063031 -3.9064323,47.21637 -4.3757594,46.420374 L -14.386949,33.915365 V 29.97899 h -1.455119 -1.445928 z" /><path
         id="path4-0-0-9-0-9"
         style="fill:#f9f9f9;stroke:none;stroke-width:0.784038"
         d="m 7.3183399,29.97899 v 3.936375 L -2.6928512,46.420374 c -0.4693271,0.795996 -0.8890909,1.642657 -0.9099796,2.895075 l 0.2276722,19.915055 H 8.7734578 10.219386 22.368002 L 22.595674,49.315449 C 22.57479,48.063031 22.155022,47.21637 21.685695,46.420374 L 11.674505,33.915365 V 29.97899 H 10.219386 8.7734578 Z" /><path
         id="path1-2"
         style="fill:#f9f9f9;stroke:none;stroke-width:0.626114"
         d="m 30.341036,42.180375 c -2.043612,0.125564 -3.281666,1.056689 -3.253764,3.253767 v 26.39639 h 12.477321 3.10395 12.477321 v -26.39639 c 0.0279,-2.197078 -1.210152,-3.128203 -3.253764,-3.253767 h -9.223557 -3.10395 z" /><rect
         style="fill:#0000ff;fill-opacity:1;stroke:none;stroke-width:0.327001;stroke-linecap:round;stroke-miterlimit:2.7;stroke-dasharray:none"
         id="rect97"
         width="4.3656249"
         height="3.8033853"
         x="-18.752344"
         y="29.997135" /><rect
         style="fill:#0000ff;fill-opacity:1;stroke:none;stroke-width:0.327001;stroke-linecap:round;stroke-miterlimit:2.7;stroke-dasharray:none"
         id="rect97-4"
         width="4.3656249"
         height="3.8033853"
         x="7.3421874"
         y="29.93099" /></g></g></svg>
