<?xml version="1.0" encoding="UTF-8" standalone="no"?>
<!-- Created with Inkscape (http://www.inkscape.org/) -->

<svg
   width="95mm"
   height="56mm"
   viewBox="0 0 95 56"
   version="1.1"
   id="svg1"
   xml:space="preserve"
   xmlns="http://www.w3.org/2000/svg"
   xmlns:svg="http://www.w3.org/2000/svg"><defs
     id="defs1" /><g
     id="layer1"><path
       style="fill:#cca087;fill-opacity:1;stroke:none;stroke-width:0.327001;stroke-linecap:round;stroke-miterlimit:2.7;stroke-dasharray:none"
       d="M 1.4624866,0.69805182 V 52.291798 h 2.86184 v -21.59765 h 5.2e-4 v -0.59066 h 1.65158 v -1.5875 h 0.52038 v 2.30994 h -0.0718 l 0.33228,0.37258 v 21.09329 h 1.1420501 l -0.22376,-19.60087 c 0.0209,-1.25242 0.44069,-2.09891 0.91002,-2.89491 L 18.596356,17.290842 v -3.9362 h 1.45521 1.4459 1.45521 v 3.9362 l 10.01128,12.505176 c 0.37042,0.62825 0.70177,1.29674 0.83871,2.16265 0.13639,-0.8685 0.47323,-1.53315 0.84439,-2.16265 L 44.657813,17.290842 v -3.9362 h 1.455208 1.445906 1.455209 v 3.9362 l 10.011275,12.505176 c 0.469327,0.796 0.889142,1.64249 0.910022,2.89491 l -0.224276,19.60087 h 0.606682 v -21.13101 l 0.499711,-0.44752 v -2.295976 h 0.557588 v -0.50023 h 1.580782 v -0.55139 h 0.26045 v -2.42155 h 0.656807 v 2.42155 h 0.01499 v 0.55139 h 0.07131 v 2.408636 h -0.0067 v 17.39945 h 0.0047 v 7.5768 h 0.475356 v -26.35705 c -0.02789,-2.284396 1.209791,-3.252166 3.252515,-3.382726 h 9.219592 3.102653 9.21959 c 2.04272,0.13056 3.28042,1.09833 3.25252,3.382726 v 26.35705 h 1.05781 v -3.01015 -4.56665 -47.02709618 z"
       id="path94" /></g></svg>
