<?xml version="1.0" encoding="UTF-8" standalone="no"?>
<!-- Created with Inkscape (http://www.inkscape.org/) -->

<svg
   width="30mm"
   height="37mm"
   viewBox="0 0 30 37"
   version="1.1"
   id="svg1"
   xmlns:xlink="http://www.w3.org/1999/xlink"
   xmlns="http://www.w3.org/2000/svg"
   xmlns:svg="http://www.w3.org/2000/svg">
  <defs
     id="defs1">
    <linearGradient
       xlink:href="#linearGradient13"
       id="linearGradient14"
       x1="81.324486"
       y1="209.4881"
       x2="85.449875"
       y2="209.52582"
       gradientUnits="userSpaceOnUse"
       gradientTransform="matrix(1.1023142,0,0,1.1023142,-78.168707,-229.01555)" />
    <linearGradient
       id="linearGradient13">
      <stop
         style="stop-color:#707070;stop-opacity:1;"
         offset="0"
         id="stop13" />
      <stop
         style="stop-color:#ffffff;stop-opacity:1;"
         offset="1"
         id="stop14" />
    </linearGradient>
    <linearGradient
       xlink:href="#linearGradient11"
       id="linearGradient12"
       x1="83.486511"
       y1="237.19385"
       x2="86.758728"
       y2="237.19385"
       gradientUnits="userSpaceOnUse"
       gradientTransform="matrix(1.1023142,0,0,1.1023142,-78.782674,-229.01555)" />
    <linearGradient
       id="linearGradient11">
      <stop
         style="stop-color:#b3b3b3;stop-opacity:1;"
         offset="0"
         id="stop11" />
      <stop
         style="stop-color:#e9e9e9;stop-opacity:1;"
         offset="1"
         id="stop12" />
    </linearGradient>
  </defs>
  <g
     id="layer1">
    <g
       id="g1">
      <path
         id="path1"
         style="fill:none;stroke:#000000;stroke-width:0.626114"
         d="M 4.2736663,2.5246548 C 2.2300541,2.6502194 0.9919998,3.5813443 1.0199016,5.7784218 V 32.174812 h 12.4773214 3.10395 12.477321 V 5.7784218 c 0.0279,-2.1970775 -1.210152,-3.1282024 -3.253764,-3.253767 h -9.223557 -3.10395 z" />
      <path
         style="fill:none;stroke:#000000;stroke-width:0.626114"
         d="M 0.96309602,5.0098002 C 2.5614274,5.2481205 4.0883287,5.3397118 5.5645358,5.3338475 H 24.359148 c 1.414788,-0.037699 2.879447,-0.1003106 4.536632,-0.2592423"
         id="path2" />
      <path
         style="fill:none;stroke:#000000;stroke-width:0.626114"
         d="M 5.5111981,2.4102567 5.6945052,5.3889962 V 32.19773"
         id="path3" />
      <path
         style="fill:none;stroke:#000000;stroke-width:0.626114"
         d="M 24.360094,2.380869 24.176787,5.3596085 V 32.168342"
         id="path3-6" />
      <rect
         style="fill:url(#linearGradient14);stroke:#000000;stroke-width:0.626114"
         id="rect3"
         width="6.4157648"
         height="1.8330756"
         x="11.789482"
         y="0.98961776"
         rx="0.083147399"
         ry="1.8330756" />
      <path
         id="path11-4"
         style="fill:url(#linearGradient12);stroke:#000000;stroke-width:0.626114"
         d="m 15.558355,31.220782 v 4.633842 m -0.99985,-4.580975 v 4.633842 m 0.142263,-6.849946 c -0.632746,0 -1.142019,0.449116 -1.142019,1.006799 v 0.851339 h 2.980897 v -0.851339 c 0,-0.557683 -0.509274,-1.006799 -1.142019,-1.006799 z m -1.114034,2.160183 h 2.922326 v 4.617925 h -2.922326 z" />
    </g>
  </g>
</svg>
